<?xml version="1.0" standalone="no"?>
<!DOCTYPE svg PUBLIC "-//W3C//DTD SVG 20010904//EN"
 "http://www.w3.org/TR/2001/REC-SVG-20010904/DTD/svg10.dtd">
<svg version="1.0" xmlns="http://www.w3.org/2000/svg"
 width="72.000000pt" height="72.000000pt" viewBox="0 0 72.000000 72.000000"
 preserveAspectRatio="xMidYMid meet">

<g transform="translate(0.000000,72.000000) scale(0.100000,-0.100000)"
fill="#000000" stroke="none">
<path d="M337 674 c-4 -4 -7 -17 -7 -30 0 -26 -40 -40 -70 -24 -32 17 -55 11
-83 -20 -15 -16 -31 -30 -36 -30 -5 0 -11 14 -15 30 -5 29 -8 30 -56 30 -61 0
-67 -18 -8 -22 l42 -3 43 -180 c35 -151 39 -181 27 -188 -25 -14 -15 -97 12
-97 10 0 12 -8 8 -28 -7 -36 16 -62 55 -62 35 0 51 17 51 52 l0 28 105 0 105
0 0 -28 c0 -35 16 -52 51 -52 35 0 62 27 56 56 -3 17 1 24 16 26 11 2 22 9 24
15 4 10 -50 13 -234 15 l-238 3 -3 28 -3 27 225 0 c129 0 227 4 231 9 3 6 16
61 30 123 14 62 27 123 30 136 4 17 0 24 -19 32 -24 9 -32 25 -38 80 -2 19
-10 26 -31 28 -36 4 -57 -13 -57 -48 0 -16 -3 -37 -7 -47 -5 -11 -10 13 -13
62 l-5 80 -90 3 c-50 1 -94 0 -98 -4z m123 -89 l0 -65 -55 0 -55 0 0 65 0 65
55 0 55 0 0 -65z m37 -32 c-2 -21 -4 -6 -4 32 0 39 2 55 4 38 2 -18 2 -50 0
-70z m-235 30 c14 -13 21 -14 30 -5 20 20 28 14 28 -23 l0 -35 -85 0 c-69 0
-85 3 -85 15 0 8 9 15 19 15 12 0 21 9 25 25 8 30 40 34 68 8z m351 10 c-7 -2
-19 -2 -25 0 -7 3 -2 5 12 5 14 0 19 -2 13 -5z m7 -53 c10 -18 8 -20 -25 -20
-33 0 -35 2 -25 20 6 11 17 20 25 20 8 0 19 -9 25 -20z m-50 -70 c0 -11 -4
-20 -10 -20 -5 0 -10 9 -10 20 0 11 5 20 10 20 6 0 10 -9 10 -20z m100 16 c0
-23 -17 -36 -46 -36 -32 0 -45 16 -27 33 7 8 73 10 73 3z m-20 -66 c0 -5 -4
-10 -9 -10 -6 0 -13 5 -16 10 -3 6 1 10 9 10 9 0 16 -4 16 -10z m-300 -16 c0
-17 -22 -14 -28 4 -2 7 3 12 12 12 9 0 16 -7 16 -16z m37 -6 c-3 -8 -6 -5 -6
6 -1 11 2 17 5 13 3 -3 4 -12 1 -19z m-37 -58 c0 -16 -7 -20 -35 -20 -28 0
-35 4 -35 20 0 16 7 20 35 20 28 0 35 -4 35 -20z m69 17 c-2 -1 -12 -9 -21
-16 -15 -12 -18 -11 -18 3 0 10 8 16 22 16 12 0 19 -1 17 -3z m-159 -27 c0 -5
-5 -10 -11 -10 -5 0 -7 5 -4 10 3 6 8 10 11 10 2 0 4 -4 4 -10z m100 -60 c0
-11 -7 -20 -15 -20 -8 0 -15 9 -15 20 0 11 7 20 15 20 8 0 15 -9 15 -20z m-90
-156 c11 -12 11 -18 -2 -30 -18 -18 -48 -8 -48 15 0 33 28 42 50 15z m318 -10
c4 -27 -26 -40 -46 -20 -13 13 -13 18 -2 31 18 21 44 15 48 -11z"/>
<path d="M373 618 c2 -7 16 -13 32 -13 16 0 30 6 33 13 2 8 -8 12 -33 12 -25
0 -35 -4 -32 -12z"/>
<path d="M237 113 c-12 -11 -8 -23 8 -23 8 0 15 7 15 15 0 16 -12 20 -23 8z"/>
<path d="M550 106 c0 -9 7 -16 16 -16 9 0 14 5 12 12 -6 18 -28 21 -28 4z"/>
</g>
</svg>
